<?xml version="1.0" encoding="UTF-8" standalone="no"?>
<!DOCTYPE svg PUBLIC "-//W3C//DTD SVG 1.1//EN" "http://www.w3.org/Graphics/SVG/1.1/DTD/svg11.dtd">
<svg width="100%" height="100%" viewBox="0 0 100 100" version="1.1" xmlns="http://www.w3.org/2000/svg" xmlns:xlink="http://www.w3.org/1999/xlink" xml:space="preserve" xmlns:serif="http://www.serif.com/" style="fill-rule:evenodd;clip-rule:evenodd;stroke-linecap:square;stroke-miterlimit:2;">
    <g transform="matrix(0.9,0,0,0.9,-32.9,-35.6)">
        <circle cx="51" cy="54" r="10" style="fill:none;stroke:black;stroke-width:8.89px;"/>
    </g>
    <g transform="matrix(0.9,0,0,0.9,3.6,1.4)">
        <circle cx="51" cy="54" r="10" style="fill:none;stroke:black;stroke-width:8.89px;"/>
    </g>
    <g transform="matrix(0.9,0,0,0.9,41.1,-35.6)">
        <circle cx="51" cy="54" r="10" style="fill:none;stroke:black;stroke-width:8.89px;"/>
    </g>
    <g transform="matrix(0.9,0,0,0.9,-32.9,38.4)">
        <circle cx="51" cy="54" r="10" style="fill:none;stroke:black;stroke-width:8.89px;"/>
    </g>
    <g transform="matrix(0.9,0,0,0.9,41.1,38.4)">
        <circle cx="51" cy="54" r="10" style="fill:none;stroke:black;stroke-width:8.89px;"/>
    </g>
    <g transform="matrix(1,0,0,0.933333,1.5,3.33333)">
        <path d="M11.5,20L11.5,80" style="fill:none;stroke:black;stroke-width:8.27px;"/>
    </g>
    <g transform="matrix(0.916667,0,0,1,3.66667,1.5)">
        <path d="M20,11.5L80,11.5" style="fill:none;stroke:black;stroke-width:8.34px;"/>
    </g>
    <path d="M80,20L58.5,41.5" style="fill:none;stroke:black;stroke-width:8px;"/>
    <g transform="matrix(1,0,0,-1,0,100)">
        <path d="M80,20L58.5,41.5" style="fill:none;stroke:black;stroke-width:8px;"/>
    </g>
    <g transform="matrix(0.9,0,0,1,4.5,-1.5)">
        <path d="M80,88.5L20,88.5" style="fill:none;stroke:black;stroke-width:8.41px;"/>
    </g>
</svg>
