<?xml version="1.0" encoding="UTF-8" standalone="no"?>
<!DOCTYPE svg PUBLIC "-//W3C//DTD SVG 1.1//EN" "http://www.w3.org/Graphics/SVG/1.1/DTD/svg11.dtd">
<svg width="100%" height="100%" viewBox="0 0 100 100" version="1.1" xmlns="http://www.w3.org/2000/svg" xmlns:xlink="http://www.w3.org/1999/xlink" xml:space="preserve" xmlns:serif="http://www.serif.com/" style="fill-rule:evenodd;clip-rule:evenodd;stroke-linejoin:round;stroke-miterlimit:2;">
    <path d="M98.316,17.954C100.561,15.709 100.561,12.064 98.316,9.819L90.181,1.684C87.936,-0.561 84.291,-0.561 82.046,1.684L1.684,82.046C-0.561,84.291 -0.561,87.936 1.684,90.181L9.819,98.316C12.064,100.561 15.709,100.561 17.954,98.316L98.316,17.954ZM85.529,6.961L68.285,24.205L75.795,31.715L93.039,14.471L85.529,6.961Z"/>
    <g transform="matrix(1,0,0,1,-10,7.61803)">
        <path d="M30,9L33.811,15.755L41.413,17.292L36.166,23.004L37.053,30.708L30,27.484L22.947,30.708L23.834,23.004L18.587,17.292L26.189,15.755L30,9Z"/>
    </g>
    <g transform="matrix(0.725528,0,0,0.725528,25.9405,-3.51006)">
        <path d="M30,9L33.811,15.755L41.413,17.292L36.166,23.004L37.053,30.708L30,27.484L22.947,30.708L23.834,23.004L18.587,17.292L26.189,15.755L30,9Z"/>
    </g>
    <g transform="matrix(1.16667,0,0,1.16667,36.8254,49.5)">
        <path d="M30,9L33.811,15.755L41.413,17.292L36.166,23.004L37.053,30.708L30,27.484L22.947,30.708L23.834,23.004L18.587,17.292L26.189,15.755L30,9Z"/>
    </g>
</svg>
