<?xml version="1.0" encoding="utf-8"?><svg version="1.1" id="Layer_1" xmlns="http://www.w3.org/2000/svg" xmlns:xlink="http://www.w3.org/1999/xlink" x="0px" y="0px" viewBox="0 0 122.88 95.21" style="enable-background:new 0 0 122.88 95.21" xml:space="preserve"><g><path d="M2.48,20.74h4.5v-9.86c0-1.37,1.11-2.48,2.48-2.48h4.41V2.48c0-1.37,1.11-2.48,2.48-2.48h40.26c1.37,0,2.48,1.11,2.48,2.48 V8.4h54.3c1.37,0,2.48,1.11,2.48,2.48v9.86h4.53c1.37,0,2.48,1.11,2.48,2.48c0,0.18-0.02,0.36-0.06,0.52l-8.68,63.81 c-0.28,2.08-1.19,4.01-2.59,5.41c-1.38,1.38-3.21,2.24-5.36,2.24H14.7c-2.16,0-4.03-0.87-5.43-2.26c-1.41-1.41-2.31-3.35-2.54-5.46 l-6.72-64c-0.14-1.36,0.85-2.58,2.21-2.72C2.31,20.75,2.39,20.75,2.48,20.74L2.48,20.74L2.48,20.74z M9.46,25.71H5.23l6.43,61.27 c0.1,0.98,0.5,1.85,1.1,2.46c0.5,0.5,1.17,0.81,1.93,0.81h91.5c0.75,0,1.38-0.3,1.87-0.79c0.62-0.62,1.03-1.53,1.17-2.55 l8.32-61.19H9.46L9.46,25.71z M11.94,13.37v7.36l98.97-1.05v-6.31h-54.3c-1.37,0-2.48-1.11-2.48-2.48V4.97h-35.3v5.92 c0,1.37-1.11,2.48-2.48,2.48H11.94L11.94,13.37z"/></g></svg>