<?xml version="1.0" encoding="UTF-8" standalone="no"?>
<!DOCTYPE svg PUBLIC "-//W3C//DTD SVG 1.1//EN" "http://www.w3.org/Graphics/SVG/1.1/DTD/svg11.dtd">
<svg width="100%" height="100%" viewBox="0 0 100 100" version="1.1" xmlns="http://www.w3.org/2000/svg" xmlns:xlink="http://www.w3.org/1999/xlink" xml:space="preserve" xmlns:serif="http://www.serif.com/" style="fill-rule:evenodd;clip-rule:evenodd;stroke-linejoin:round;stroke-miterlimit:2;">
    <g transform="matrix(-4.45326e-17,0.727273,1,6.12323e-17,5.03233e-16,-1.42109e-14)">
        <rect x="0" y="0" width="11" height="100"/>
    </g>
    <g transform="matrix(-8.27464e-17,-1.35135,-1.55556,9.52503e-17,188.667,118.919)">
        <path d="M88,70.5C88,68.016 85.679,66 82.82,66L19.18,66C16.321,66 14,68.016 14,70.5L14,79.5C14,81.984 16.321,84 19.18,84L82.82,84C85.679,84 88,81.984 88,79.5L88,70.5Z"/>
    </g>
    <g transform="matrix(-4.13732e-17,-0.675676,-1.55556,9.52503e-17,144.667,59.4595)">
        <path d="M88,70.5C88,68.016 83.358,66 77.64,66L24.36,66C18.642,66 14,68.016 14,70.5L14,79.5C14,81.984 18.642,84 24.36,84L77.64,84C83.358,84 88,81.984 88,79.5L88,70.5Z"/>
    </g>
</svg>
