<?xml version="1.0" encoding="UTF-8" standalone="no"?>
<!DOCTYPE svg PUBLIC "-//W3C//DTD SVG 1.1//EN" "http://www.w3.org/Graphics/SVG/1.1/DTD/svg11.dtd">
<svg width="100%" height="100%" viewBox="0 0 100 100" version="1.1" xmlns="http://www.w3.org/2000/svg" xmlns:xlink="http://www.w3.org/1999/xlink" xml:space="preserve" xmlns:serif="http://www.serif.com/" style="fill-rule:evenodd;clip-rule:evenodd;stroke-linejoin:round;stroke-miterlimit:2;">
    <g transform="matrix(0.922934,0.922934,-0.922934,0.922934,51.9626,-38.7184)">
        <g transform="matrix(0.785714,0,0,1.39286,10.0714,-33.4286)">
            <path d="M61,31.897C61,27.539 54.727,24 47,24C39.273,24 33,27.539 33,31.897L33,44.103C33,48.461 39.273,52 47,52C54.727,52 61,48.461 61,44.103L61,31.897Z"/>
        </g>
        <g transform="matrix(0.928571,0,0,0.587978,2.42857,-3.92236)">
            <path d="M69,58.75C69,56.128 67.652,54 65.992,54L30.008,54C28.348,54 27,56.128 27,58.75L27,68.25C27,70.872 28.348,73 30.008,73L65.992,73C67.652,73 69,70.872 69,68.25L69,58.75Z"/>
        </g>
        <g transform="matrix(1,0,0,1,-1,-24)">
            <rect x="37" y="68" width="22" height="20"/>
        </g>
        <g transform="matrix(-1.04762,-1.63286e-16,8.74748e-17,-0.909091,99.9048,145.818)">
            <path d="M61,90L40,90L45.25,68L55.75,68L61,90Z"/>
        </g>
        <g transform="matrix(-0.52381,-8.16431e-17,6.99798e-17,-0.727273,73.4524,149.455)">
            <path d="M61,90L40,90L45.25,68L55.75,68L61,90Z"/>
        </g>
    </g>
</svg>
