<?xml version="1.0" encoding="UTF-8" standalone="no"?>
<!DOCTYPE svg PUBLIC "-//W3C//DTD SVG 1.1//EN" "http://www.w3.org/Graphics/SVG/1.1/DTD/svg11.dtd">
<svg width="100%" height="100%" viewBox="0 0 100 100" version="1.1" xmlns="http://www.w3.org/2000/svg" xmlns:xlink="http://www.w3.org/1999/xlink" xml:space="preserve" xmlns:serif="http://www.serif.com/" style="fill-rule:evenodd;clip-rule:evenodd;stroke-linejoin:round;stroke-miterlimit:1.5;">
    <g transform="matrix(1.42857,0,0,0.416667,-14.2857,33.3333)">
        <path d="M10,50.5L10,29.5L71.25,29.5L71.25,10L80,40L71.25,70L71.25,50.5L10,50.5Z"/>
    </g>
    <g transform="matrix(8.74748e-17,-1.42857,0.416667,2.55135e-17,33.3333,114.286)">
        <path d="M10,50.5L10,29.5L71.25,29.5L71.25,10L80,40L71.25,70L71.25,50.5L10,50.5Z"/>
    </g>
    <g transform="matrix(1,0,0,1,4,-2)">
        <g transform="matrix(1.17647,0,0,1,59.9412,-58)">
            <path d="M6,79L23,79" style="fill:none;stroke:black;stroke-width:5.72px;"/>
        </g>
        <g transform="matrix(7.2038e-17,-1.17647,1,6.12323e-17,-2,38.0588)">
            <path d="M6,79L23,79" style="fill:none;stroke:black;stroke-width:5.72px;"/>
        </g>
    </g>
    <g transform="matrix(0.882353,0,0,0.75,6.20588,21.75)">
        <path d="M6,79L23,79" style="fill:none;stroke:black;stroke-width:7.63px;"/>
    </g>
</svg>
